<svg width="20" height="24" viewBox="0 0 20 24" fill="none" xmlns="http://www.w3.org/2000/svg">
<path d="M1.09955 20.3914C0.782566 20.3914 0.520059 20.2894 0.312036 20.0854C0.104012 19.8814 0 19.6332 0 19.3408C0 19.0484 0.104012 18.8019 0.312036 18.6014C0.520059 18.401 0.782566 18.3007 1.09955 18.3007H2.37741V9.56563C2.37741 7.88544 2.88757 6.37231 3.90788 5.02625C4.92818 3.68019 6.29024 2.81623 7.99406 2.43437V1.91885C7.99406 1.40653 8.18781 0.958635 8.5753 0.57517C8.9628 0.191723 9.43333 0 9.98689 0C10.5405 0 11.0104 0.191723 11.3967 0.57517C11.7831 0.958635 11.9762 1.40653 11.9762 1.91885V2.43437C13.68 2.81623 15.0471 3.67686 16.0773 5.01626C17.1075 6.35566 17.6226 7.87211 17.6226 9.56563V18.3007H18.9004C19.2065 18.3007 19.4663 18.401 19.6798 18.6014C19.8933 18.8019 20 19.0484 20 19.3408C20 19.6332 19.8933 19.8814 19.6798 20.0854C19.4663 20.2894 19.2065 20.3914 18.9004 20.3914H1.09955ZM9.9841 24C9.28098 24 8.67942 23.7588 8.17941 23.2765C7.67942 22.7941 7.42942 22.2143 7.42942 21.537H12.5409C12.5409 22.2243 12.2905 22.8067 11.7898 23.284C11.2891 23.7613 10.6872 24 9.9841 24Z"   fill="currentColor"/>
</svg>
