<svg width="40" height="40" viewBox="0 0 40 40" fill="none" xmlns="http://www.w3.org/2000/svg">
<rect width="40" height="40" rx="8.33333" fill="#507CEB"/>
<path d="M20.5 21.167C22.1108 21.167 23.4167 22.4728 23.4167 24.0837C23.4167 25.6945 22.1108 27.0003 20.5 27.0003C18.8892 27.0003 17.5833 25.6945 17.5833 24.0837C17.5833 22.4728 18.8892 21.167 20.5 21.167Z" fill="#F7F8F2"/>
<path d="M15.9167 16.583C17.5275 16.583 18.8333 17.8888 18.8333 19.4997C18.8333 21.1105 17.5275 22.4163 15.9167 22.4163C14.3058 22.4163 13 21.1105 13 19.4997C13 17.8888 14.3058 16.583 15.9167 16.583Z" fill="#F7F8F2"/>
<path d="M20.5 12C22.1108 12 23.4167 13.3058 23.4167 14.9167C23.4167 16.5275 22.1108 17.8333 20.5 17.8333C18.8892 17.8333 17.5833 16.5275 17.5833 14.9167C17.5833 13.3058 18.8892 12 20.5 12Z" fill="#F7F8F2"/>
<path d="M25.0834 16.583C26.6942 16.583 28 17.8888 28 19.4997C28 21.1105 26.6942 22.4163 25.0834 22.4163C23.4725 22.4163 22.1667 21.1105 22.1667 19.4997C22.1667 17.8888 23.4725 16.583 25.0834 16.583Z" fill="#F7F8F2"/>
</svg>
