<svg width="23" height="20" viewBox="0 0 23 20" fill="none" xmlns="http://www.w3.org/2000/svg">
<path d="M11.6692 19.7C10.8731 19.0667 10.0125 18.5708 9.08748 18.2125C8.16248 17.8542 7.19508 17.675 6.18528 17.675C5.47841 17.675 4.79295 17.7667 4.1289 17.95C3.46485 18.1333 2.82188 18.3917 2.19998 18.725C1.83331 18.9083 1.47498 18.8958 1.12498 18.6875C0.774976 18.4792 0.599976 18.175 0.599976 17.775V5.725C0.599976 5.5144 0.649976 5.31337 0.749976 5.1219C0.849976 4.93045 0.999976 4.78982 1.19998 4.7C1.96048 4.31667 2.7631 4.025 3.60785 3.825C4.4526 3.625 5.31027 3.525 6.18085 3.525C7.1519 3.525 8.10202 3.64902 9.0312 3.89707C9.96038 4.14512 10.8416 4.52108 11.675 5.02495V17.775C12.525 17.225 13.4166 16.8083 14.35 16.525C15.2833 16.2417 16.225 16.1 17.175 16.1C17.775 16.1 18.4291 16.1583 19.1375 16.275C19.8458 16.3917 20.5218 16.6333 21.1656 17V4.275C21.3382 4.34167 21.5065 4.40833 21.6706 4.475C21.8346 4.54167 21.9944 4.61667 22.15 4.7C22.3333 4.82315 22.4791 4.97038 22.5875 5.14167C22.6958 5.31296 22.75 5.5074 22.75 5.725V17.8C22.75 18.2 22.575 18.5 22.225 18.7C21.875 18.9 21.5166 18.9083 21.15 18.725C20.5305 18.3917 19.8901 18.1333 19.2287 17.95C18.5673 17.7667 17.8816 17.675 17.1715 17.675C16.1572 17.675 15.1856 17.8542 14.2567 18.2125C13.3279 18.5708 12.4654 19.0667 11.6692 19.7ZM13.175 15.45V6.525L19.675 0V9.775L13.175 15.45Z" fill="currentColor"/>
</svg>
