<svg width="24" height="24" viewBox="0 0 24 24" fill="none" xmlns="http://www.w3.org/2000/svg">
<path d="M2 24C1.46667 24 1 23.8 0.6 23.4C0.2 23 0 22.5333 0 22V2C0 1.46667 0.2 1 0.6 0.6C1 0.2 1.46667 0 2 0H10.9667C11.25 0 11.4875 0.0963885 11.6792 0.289166C11.8708 0.481966 11.9667 0.720855 11.9667 1.00583C11.9667 1.29083 11.8708 1.52778 11.6792 1.71667C11.4875 1.90556 11.25 2 10.9667 2H2V22H10.9667C11.25 22 11.4875 22.0964 11.6792 22.2892C11.8708 22.482 11.9667 22.7209 11.9667 23.0058C11.9667 23.2908 11.8708 23.5278 11.6792 23.7167C11.4875 23.9056 11.25 24 10.9667 24H2ZM20.1667 13H9C8.71667 13 8.47917 12.9036 8.2875 12.7108C8.09583 12.518 8 12.2791 8 11.9942C8 11.7092 8.09583 11.4722 8.2875 11.2833C8.47917 11.0944 8.71667 11 9 11H20.1L17.4 8.3C17.2 8.1 17.1056 7.86667 17.1167 7.6C17.1278 7.33333 17.2333 7.1 17.4333 6.9C17.6333 6.7 17.8722 6.6 18.15 6.6C18.4278 6.6 18.6667 6.7 18.8667 6.9L23.3 11.3333C23.5 11.5333 23.6 11.7667 23.6 12.0333C23.6 12.3 23.5 12.5333 23.3 12.7333L18.9 17.1333C18.7044 17.3333 18.4722 17.4278 18.2033 17.4167C17.9344 17.4056 17.6957 17.3 17.487 17.1C17.2957 16.9 17.2 16.6611 17.2 16.3833C17.2 16.1056 17.3 15.8667 17.5 15.6667L20.1667 13Z" fill="currentColor"/>
</svg>
