<svg width="18" height="18" viewBox="0 0 18 18" fill="none" xmlns="http://www.w3.org/2000/svg">
    <path
        d="M9 8.82539C7.80897 8.82539 6.84038 8.45232 6.09423 7.70617C5.34808 6.96003 4.975 5.99144 4.975 4.80039C4.975 3.60934 5.34808 2.64075 6.09423 1.89462C6.84038 1.14847 7.80897 0.775391 9 0.775391C10.1911 0.775391 11.1596 1.14847 11.9058 1.89462C12.6519 2.64075 13.025 3.60934 13.025 4.80039C13.025 5.99144 12.6519 6.96003 11.9058 7.70617C11.1596 8.45232 10.1911 8.82539 9 8.82539ZM2.45 17.7504C1.93333 17.7504 1.5 17.5754 1.15 17.2254C0.8 16.8754 0.625 16.4421 0.625 15.9254V15.0352C0.625 14.3453 0.790883 13.7544 1.12265 13.2624C1.45442 12.7703 1.88853 12.3997 2.425 12.1504C3.575 11.6171 4.68788 11.2212 5.76365 10.9629C6.83942 10.7046 7.91858 10.5754 9.00115 10.5754C10.0837 10.5754 11.1583 10.7087 12.225 10.9754C13.2917 11.2421 14.4 11.6337 15.55 12.1504C16.1031 12.3997 16.5456 12.7703 16.8773 13.2624C17.2091 13.7544 17.375 14.3453 17.375 15.0352V15.9254C17.375 16.4421 17.2 16.8754 16.85 17.2254C16.5 17.5754 16.0667 17.7504 15.55 17.7504H2.45Z"
        fill="currentColor" />
</svg>