<svg width="430" height="110" viewBox="0 0 430 110" fill="none" xmlns="http://www.w3.org/2000/svg">
<path fill-rule="evenodd" clip-rule="evenodd" d="M36.3126 36.3153C36.8448 40.2406 38.6301 44.0218 41.6461 47.0378C44.6622 50.0539 48.4434 51.8281 52.3687 52.3714C51.8365 48.4461 50.0512 44.6649 47.0352 41.6488C44.0191 38.6328 40.2379 36.8586 36.3126 36.3153ZM73.5478 36.3153C69.6224 36.8475 65.8413 38.6328 62.8252 41.6488C59.8091 44.6649 58.035 48.4461 57.4916 52.3714C61.417 51.8392 65.1981 50.0539 68.2142 47.0378C71.2303 44.0218 73.0155 40.2406 73.5478 36.3153ZM54.9302 44.5873C56.0501 42.3031 57.5471 40.1741 59.4432 38.2779C63.4018 34.3193 68.4138 32.0684 73.581 31.5139C73.0931 27.4777 71.3079 23.5746 68.2142 20.4809L54.9302 7.18576L41.6461 20.4698C38.5525 23.5635 36.7561 27.4666 36.2793 31.5029C41.4466 32.0573 46.4586 34.3082 50.4172 38.2668C52.3133 40.163 53.8213 42.3031 54.9302 44.5873ZM36.3126 73.5505C36.8448 69.6251 38.6301 65.8439 41.6461 62.8279C44.6622 59.8118 48.4434 58.0376 52.3687 57.4943C51.8365 61.4196 50.0512 65.2008 47.0352 68.2169C44.0191 71.233 40.2379 73.0182 36.3126 73.5505ZM73.5478 73.5505C69.6224 73.0182 65.8413 71.233 62.8252 68.2169C59.8091 65.2008 58.035 61.4196 57.4916 57.4943C61.417 58.0266 65.1981 59.8118 68.2142 62.8279C71.2303 65.8439 73.0155 69.6251 73.5478 73.5505ZM54.9302 65.2784C56.0501 67.5627 57.5471 69.6917 59.4432 71.5878C63.4018 75.5464 68.4138 77.7974 73.581 78.3518C73.0931 82.388 71.3079 86.2912 68.2142 89.3848L54.9302 102.68L41.6461 89.3959C38.5525 86.3022 36.7561 82.3991 36.2793 78.3629C41.4466 77.8084 46.4586 75.5575 50.4172 71.5989C52.3133 69.7028 53.8213 67.5627 54.9302 65.2784ZM102.677 54.9329L89.3932 41.6488C86.2996 38.5551 82.3964 36.7588 78.3602 36.282C77.8058 41.4492 75.5548 46.4612 71.5962 50.4198C69.7001 52.316 67.56 53.824 65.2868 54.9329C67.5711 56.0528 69.7001 57.5498 71.5962 59.4459C75.5548 63.4045 77.8058 68.4165 78.3602 73.5837C82.3964 73.0958 86.2996 71.3106 89.3932 68.2169L102.677 54.9329ZM0.430176 54.9329L17.0962 38.2668C21.1102 34.2528 26.222 31.9907 31.478 31.4807C31.9881 26.2247 34.2501 21.1129 38.2752 17.0989L54.9302 0.432861L71.5962 17.0989C75.6102 21.1129 77.8834 26.2247 78.3824 31.4807C83.6383 31.9907 88.7501 34.2528 92.7642 38.2779L109.43 54.9329L92.7752 71.5989C88.7501 75.6129 83.6383 77.8861 78.3824 78.385C77.8723 83.641 75.6102 88.7528 71.5851 92.7668L54.9302 109.433L38.2642 92.7779C34.2501 88.7528 31.9881 83.641 31.478 78.385C26.222 77.875 21.1102 75.6129 17.0962 71.5878L0.430176 54.9329ZM44.5846 54.9329C42.3004 53.8129 40.1714 52.316 38.2752 50.4198C34.3166 46.4612 32.0657 41.4492 31.5113 36.282C27.475 36.7699 23.5719 38.5551 20.4782 41.6488L7.18308 54.9329L20.4671 68.2169C23.5608 71.3106 27.464 73.1069 31.5002 73.5837C32.0546 68.4165 34.3056 63.4045 38.2642 59.4459C40.1603 57.5498 42.3004 56.0528 44.5846 54.9329Z" fill="currentColor"/>
<path fill-rule="evenodd" clip-rule="evenodd" d="M53.3887 20.5806C52.5348 19.7268 52.5348 18.3518 53.3887 17.498C54.2425 16.6442 55.6174 16.6442 56.4713 17.498C57.3251 18.3518 57.3251 19.7268 56.4713 20.5806C55.6174 21.4344 54.2425 21.4344 53.3887 20.5806Z" fill="currentColor"/>
<path fill-rule="evenodd" clip-rule="evenodd" d="M53.3887 92.3677C52.5348 91.5139 52.5348 90.139 53.3887 89.2851C54.2425 88.4313 55.6174 88.4313 56.4713 89.2851C57.3251 90.139 57.3251 91.5139 56.4713 92.3677C55.6174 93.2216 54.2425 93.2216 53.3887 92.3677Z" fill="currentColor"/>
<path fill-rule="evenodd" clip-rule="evenodd" d="M89.2825 56.4742C88.4286 55.6204 88.4286 54.2454 89.2825 53.3916C90.1363 52.5378 91.5112 52.5378 92.3651 53.3916C93.2189 54.2454 93.2189 55.6204 92.3651 56.4742C91.5112 57.328 90.1363 57.328 89.2825 56.4742Z" fill="currentColor"/>
<path fill-rule="evenodd" clip-rule="evenodd" d="M20.5779 56.4742C21.4318 55.6204 21.4318 54.2454 20.5779 53.3916C19.7241 52.5378 18.3492 52.5378 17.4953 53.3916C16.6415 54.2454 16.6415 55.6204 17.4953 56.4742C18.3492 57.328 19.7352 57.328 20.5779 56.4742Z" fill="currentColor"/>
<path d="M54.9299 21.4566C56.2772 21.4566 57.3694 20.3644 57.3694 19.0171C57.3694 17.6698 56.2772 16.5776 54.9299 16.5776C53.5827 16.5776 52.4905 17.6698 52.4905 19.0171C52.4905 20.3644 53.5827 21.4566 54.9299 21.4566Z" fill="currentColor"/>
<path d="M90.857 57.3836C92.2042 57.3836 93.2964 56.2914 93.2964 54.9441C93.2964 53.5968 92.2042 52.5046 90.857 52.5046C89.5097 52.5046 88.4175 53.5968 88.4175 54.9441C88.4175 56.2914 89.5097 57.3836 90.857 57.3836Z" fill="currentColor"/>
<path d="M19.0034 57.3836C20.3507 57.3836 21.4429 56.2914 21.4429 54.9441C21.4429 53.5968 20.3507 52.5046 19.0034 52.5046C17.6562 52.5046 16.564 53.5968 16.564 54.9441C16.564 56.2914 17.6562 57.3836 19.0034 57.3836Z" fill="currentColor"/>
<path d="M54.9299 93.1993C56.2772 93.1993 57.3694 92.1071 57.3694 90.7598C57.3694 89.4125 56.2772 88.3203 54.9299 88.3203C53.5827 88.3203 52.4905 89.4125 52.4905 90.7598C52.4905 92.1071 53.5827 93.1993 54.9299 93.1993Z" fill="currentColor"/>
<path d="M160.984 84.8658C156.85 84.8658 153.019 84.1216 149.491 82.6332C145.963 81.0897 142.876 78.9674 140.23 76.2663C137.639 73.5651 135.627 70.423 134.193 66.8399C132.76 63.2568 132.043 59.4256 132.043 55.3463C132.043 51.2119 132.76 47.3532 134.193 43.7701C135.627 40.1869 137.639 37.0724 140.23 34.4264C142.876 31.7253 145.935 29.6305 149.408 28.1421C152.936 26.5986 156.767 25.8269 160.901 25.8269C165.422 25.8269 169.391 26.5986 172.808 28.1421C176.226 29.6856 179.258 31.7804 181.904 34.4264L176.529 39.8011C174.71 37.7614 172.478 36.1628 169.832 35.0052C167.241 33.8476 164.264 33.2688 160.901 33.2688C157.87 33.2688 155.086 33.82 152.55 34.9225C150.014 35.9699 147.809 37.4858 145.935 39.4703C144.061 41.4548 142.6 43.7976 141.553 46.4988C140.56 49.1999 140.064 52.1491 140.064 55.3463C140.064 58.5436 140.56 61.4928 141.553 64.1939C142.6 66.895 144.061 69.2378 145.935 71.2223C147.809 73.2068 150.014 74.7503 152.55 75.8528C155.086 76.9002 157.87 77.4239 160.901 77.4239C164.485 77.4239 167.599 76.8451 170.245 75.6874C172.891 74.4747 175.124 72.8485 176.943 70.8089L182.317 76.1009C179.671 78.8571 176.557 81.007 172.974 82.5505C169.446 84.094 165.449 84.8658 160.984 84.8658Z" fill="currentColor"/>
<path d="M205.873 84.8658C202.29 84.8658 199.038 83.9838 196.116 82.2198C193.194 80.4006 190.879 77.9476 189.17 74.8606C187.516 71.7736 186.69 68.3007 186.69 64.4419C186.69 60.5832 187.516 57.1103 189.17 54.0233C190.879 50.9363 193.167 48.4833 196.033 46.6641C198.955 44.845 202.235 43.9354 205.873 43.9354C208.85 43.9354 211.496 44.5694 213.811 45.8373C216.181 47.05 218.083 48.7589 219.516 50.9639C220.95 53.1138 221.749 55.6219 221.914 58.4884V70.3128C221.749 73.1241 220.95 75.6323 219.516 77.8373C218.138 80.0423 216.264 81.7788 213.894 83.0466C211.578 84.2594 208.905 84.8658 205.873 84.8658ZM207.113 77.8373C210.807 77.8373 213.784 76.597 216.044 74.1164C218.304 71.5806 219.434 68.3558 219.434 64.4419C219.434 61.7408 218.91 59.398 217.863 57.4135C216.87 55.3739 215.437 53.8028 213.563 52.7003C211.689 51.5427 209.511 50.9639 207.031 50.9639C204.55 50.9639 202.345 51.5427 200.416 52.7003C198.541 53.8579 197.053 55.4566 195.951 57.4962C194.903 59.4807 194.379 61.7684 194.379 64.3593C194.379 67.0053 194.903 69.3481 195.951 71.3877C197.053 73.3722 198.569 74.9433 200.498 76.1009C202.428 77.2585 204.633 77.8373 207.113 77.8373ZM218.938 84.0389V73.4549L220.343 63.8631L218.938 54.3541V44.7623H226.462V84.0389H218.938Z" fill="currentColor"/>
<path d="M237.297 84.0389V25H244.739V84.0389H237.297Z" fill="currentColor"/>
<path d="M255.627 84.0389V44.7623H263.069V84.0389H255.627ZM282.17 84.0389V60.3076C282.17 57.3859 281.26 55.0983 279.441 53.4445C277.677 51.7356 275.444 50.8812 272.743 50.8812C270.924 50.8812 269.298 51.2671 267.865 52.0388C266.432 52.8106 265.274 53.8855 264.392 55.2636C263.51 56.6418 263.069 58.2955 263.069 60.2249L260.009 58.7365C260.009 55.7598 260.643 53.1689 261.911 50.9639C263.234 48.7589 265.026 47.05 267.286 45.8373C269.546 44.5694 272.082 43.9354 274.893 43.9354C277.649 43.9354 280.13 44.5418 282.335 45.7546C284.595 46.9673 286.359 48.6762 287.627 50.8812C288.95 53.0862 289.612 55.7046 289.612 58.7365V84.0389H282.17ZM308.712 84.0389V60.3076C308.712 57.3859 307.803 55.0983 305.984 53.4445C304.22 51.7356 302.015 50.8812 299.369 50.8812C297.55 50.8812 295.896 51.2671 294.407 52.0388C292.974 52.8106 291.817 53.8855 290.935 55.2636C290.053 56.6418 289.612 58.2955 289.612 60.2249L285.395 58.7365C285.56 55.7046 286.359 53.1138 287.792 50.9639C289.281 48.7589 291.183 47.05 293.498 45.8373C295.813 44.5694 298.349 43.9354 301.105 43.9354C303.972 43.9354 306.535 44.5418 308.795 45.7546C311.055 46.9673 312.847 48.6762 314.17 50.8812C315.548 53.0862 316.237 55.7322 316.237 58.8192V84.0389H308.712Z" fill="currentColor"/>
<path d="M332.896 61.7133V54.9329H348.524C350.674 54.9329 352.576 54.4919 354.229 53.6099C355.938 52.7279 357.261 51.4876 358.198 49.8889C359.191 48.2903 359.687 46.3885 359.687 44.1835C359.687 41.9785 359.191 40.0767 358.198 38.4781C357.261 36.8794 355.938 35.6391 354.229 34.7571C352.576 33.8751 350.674 33.4341 348.524 33.4341H332.896V26.6538H349.02C352.548 26.6538 355.69 27.3704 358.446 28.8036C361.258 30.2369 363.463 32.2765 365.061 34.9225C366.715 37.5134 367.542 40.6004 367.542 44.1835C367.542 47.7115 366.715 50.7985 365.061 53.4445C363.463 56.0354 361.258 58.075 358.446 59.5634C355.69 60.9966 352.548 61.7133 349.02 61.7133H332.896ZM327.687 84.0389V26.6538H335.459V84.0389H327.687Z" fill="currentColor"/>
<path d="M390.951 84.8658C387.368 84.8658 384.115 83.9838 381.194 82.2198C378.272 80.4006 375.957 77.9476 374.248 74.8606C372.594 71.7736 371.767 68.3007 371.767 64.4419C371.767 60.5832 372.594 57.1103 374.248 54.0233C375.957 50.9363 378.245 48.4833 381.111 46.6641C384.033 44.845 387.313 43.9354 390.951 43.9354C393.928 43.9354 396.574 44.5694 398.889 45.8373C401.259 47.05 403.161 48.7589 404.594 50.9639C406.028 53.1138 406.827 55.6219 406.992 58.4884V70.3128C406.827 73.1241 406.028 75.6323 404.594 77.8373C403.216 80.0423 401.342 81.7788 398.972 83.0466C396.656 84.2594 393.983 84.8658 390.951 84.8658ZM392.191 77.8373C395.885 77.8373 398.861 76.597 401.121 74.1164C403.382 71.5806 404.512 68.3558 404.512 64.4419C404.512 61.7408 403.988 59.398 402.941 57.4135C401.948 55.3739 400.515 53.8028 398.641 52.7003C396.767 51.5427 394.589 50.9639 392.109 50.9639C389.628 50.9639 387.423 51.5427 385.494 52.7003C383.619 53.8579 382.131 55.4566 381.028 57.4962C379.981 59.4807 379.457 61.7684 379.457 64.3593C379.457 67.0053 379.981 69.3481 381.028 71.3877C382.131 73.3722 383.647 74.9433 385.576 76.1009C387.506 77.2585 389.711 77.8373 392.191 77.8373ZM404.016 84.0389V73.4549L405.421 63.8631L404.016 54.3541V44.7623H411.54V84.0389H404.016Z" fill="currentColor"/>
<path d="M422.375 84.0389V25H429.817V84.0389H422.375Z" fill="currentColor"/>
</svg>

