<svg width="298" height="188" viewBox="0 0 298 188" fill="none" xmlns="http://www.w3.org/2000/svg">
<path d="M29.0759 187.866C24.9415 187.866 21.1103 187.122 17.5823 185.633C14.0543 184.09 10.9673 181.967 8.32132 179.266C5.73044 176.565 3.71838 173.423 2.28513 169.84C0.851879 166.257 0.135254 162.426 0.135254 158.346C0.135254 154.212 0.851879 150.353 2.28513 146.77C3.71838 143.187 5.73044 140.072 8.32132 137.426C10.9673 134.725 14.0268 132.63 17.4996 131.142C21.0276 129.599 24.8588 128.827 28.9932 128.827C33.5134 128.827 37.4824 129.599 40.9002 131.142C44.3179 132.686 47.3498 134.78 49.9958 137.426L44.6211 142.801C42.802 140.761 40.5694 139.163 37.9234 138.005C35.3326 136.848 32.3558 136.269 28.9932 136.269C25.9613 136.269 23.1775 136.82 20.6418 137.923C18.106 138.97 15.901 140.486 14.0268 142.47C12.1525 144.455 10.6917 146.798 9.64432 149.499C8.65207 152.2 8.15594 155.149 8.15594 158.346C8.15594 161.544 8.65207 164.493 9.64432 167.194C10.6917 169.895 12.1525 172.238 14.0268 174.222C15.901 176.207 18.106 177.75 20.6418 178.853C23.1775 179.9 25.9613 180.424 28.9932 180.424C32.5763 180.424 35.6909 179.845 38.3369 178.687C40.9829 177.475 43.2154 175.849 45.0346 173.809L50.4093 179.101C47.7633 181.857 44.6487 184.007 41.0656 185.551C37.5376 187.094 33.541 187.866 29.0759 187.866Z" fill="white"/>
<path d="M73.9649 187.866C70.3817 187.866 67.1294 186.984 64.2077 185.22C61.2861 183.401 58.9709 180.948 57.262 177.861C55.6082 174.774 54.7814 171.301 54.7814 167.442C54.7814 163.583 55.6082 160.11 57.262 157.023C58.9709 153.936 61.2585 151.483 64.125 149.664C67.0467 147.845 70.3266 146.935 73.9649 146.935C76.9416 146.935 79.5876 147.569 81.9029 148.837C84.2732 150.05 86.175 151.759 87.6083 153.964C89.0415 156.114 89.8409 158.622 90.0062 161.488V173.313C89.8409 176.124 89.0415 178.632 87.6083 180.837C86.2302 183.042 84.3559 184.779 81.9855 186.047C79.6703 187.259 76.9967 187.866 73.9649 187.866ZM75.2052 180.837C78.8985 180.837 81.8753 179.597 84.1354 177.116C86.3955 174.581 87.5256 171.356 87.5256 167.442C87.5256 164.741 87.0019 162.398 85.9545 160.414C84.9623 158.374 83.529 156.803 81.6548 155.7C79.7805 154.543 77.6031 153.964 75.1225 153.964C72.6419 153.964 70.4369 154.543 68.5075 155.7C66.6332 156.858 65.1449 158.457 64.0424 160.496C62.995 162.481 62.4713 164.768 62.4713 167.359C62.4713 170.005 62.995 172.348 64.0424 174.388C65.1449 176.372 66.6608 177.943 68.5902 179.101C70.5195 180.259 72.7245 180.837 75.2052 180.837ZM87.0295 187.039V176.455L88.4352 166.863L87.0295 157.354V147.762H94.554V187.039H87.0295Z" fill="white"/>
<path d="M105.389 187.039V128H112.831V187.039H105.389Z" fill="white"/>
<path d="M123.719 187.039V147.762H131.161V187.039H123.719ZM150.262 187.039V163.308C150.262 160.386 149.352 158.098 147.533 156.445C145.769 154.736 143.536 153.881 140.835 153.881C139.016 153.881 137.39 154.267 135.957 155.039C134.523 155.811 133.366 156.886 132.484 158.264C131.602 159.642 131.161 161.296 131.161 163.225L128.101 161.737C128.101 158.76 128.735 156.169 130.003 153.964C131.326 151.759 133.118 150.05 135.378 148.837C137.638 147.569 140.174 146.935 142.985 146.935C145.741 146.935 148.222 147.542 150.427 148.755C152.687 149.967 154.451 151.676 155.719 153.881C157.042 156.086 157.703 158.705 157.703 161.737V187.039H150.262ZM176.804 187.039V163.308C176.804 160.386 175.895 158.098 174.076 156.445C172.312 154.736 170.107 153.881 167.461 153.881C165.641 153.881 163.988 154.267 162.499 155.039C161.066 155.811 159.908 156.886 159.026 158.264C158.144 159.642 157.703 161.296 157.703 163.225L153.486 161.737C153.652 158.705 154.451 156.114 155.884 153.964C157.373 151.759 159.274 150.05 161.59 148.837C163.905 147.569 166.441 146.935 169.197 146.935C172.063 146.935 174.627 147.542 176.887 148.755C179.147 149.967 180.939 151.676 182.262 153.881C183.64 156.086 184.329 158.732 184.329 161.819V187.039H176.804Z" fill="white"/>
<path d="M200.988 164.713V157.933H216.616C218.766 157.933 220.667 157.492 222.321 156.61C224.03 155.728 225.353 154.488 226.29 152.889C227.282 151.29 227.778 149.389 227.778 147.184C227.778 144.979 227.282 143.077 226.29 141.478C225.353 139.879 224.03 138.639 222.321 137.757C220.667 136.875 218.766 136.434 216.616 136.434H200.988V129.654H217.112C220.64 129.654 223.782 130.37 226.538 131.804C229.35 133.237 231.555 135.277 233.153 137.923C234.807 140.513 235.634 143.6 235.634 147.184C235.634 150.712 234.807 153.799 233.153 156.445C231.555 159.035 229.35 161.075 226.538 162.563C223.782 163.997 220.64 164.713 217.112 164.713H200.988ZM195.778 187.039V129.654H203.551V187.039H195.778Z" fill="white"/>
<path d="M259.043 187.866C255.46 187.866 252.207 186.984 249.286 185.22C246.364 183.401 244.049 180.948 242.34 177.861C240.686 174.774 239.859 171.301 239.859 167.442C239.859 163.583 240.686 160.11 242.34 157.023C244.049 153.936 246.336 151.483 249.203 149.664C252.125 147.845 255.404 146.935 259.043 146.935C262.019 146.935 264.665 147.569 266.981 148.837C269.351 150.05 271.253 151.759 272.686 153.964C274.119 156.114 274.919 158.622 275.084 161.488V173.313C274.919 176.124 274.119 178.632 272.686 180.837C271.308 183.042 269.434 184.779 267.063 186.047C264.748 187.259 262.075 187.866 259.043 187.866ZM260.283 180.837C263.976 180.837 266.953 179.597 269.213 177.116C271.473 174.581 272.603 171.356 272.603 167.442C272.603 164.741 272.08 162.398 271.032 160.414C270.04 158.374 268.607 156.803 266.733 155.7C264.858 154.543 262.681 153.964 260.2 153.964C257.72 153.964 255.515 154.543 253.585 155.7C251.711 156.858 250.223 158.457 249.12 160.496C248.073 162.481 247.549 164.768 247.549 167.359C247.549 170.005 248.073 172.348 249.12 174.388C250.223 176.372 251.739 177.943 253.668 179.101C255.597 180.259 257.802 180.837 260.283 180.837ZM272.107 187.039V176.455L273.513 166.863L272.107 157.354V147.762H279.632V187.039H272.107Z" fill="white"/>
<path d="M290.467 187.039V128H297.908V187.039H290.467Z" fill="white"/>
<path fill-rule="evenodd" clip-rule="evenodd" d="M130.404 35.8824C130.937 39.8077 132.722 43.5889 135.738 46.605C138.754 49.6211 142.535 51.3952 146.461 51.9386C145.928 48.0132 144.143 44.232 141.127 41.216C138.111 38.1999 134.33 36.4257 130.404 35.8824ZM167.64 35.8824C163.714 36.4146 159.933 38.1999 156.917 41.216C153.901 44.232 152.127 48.0132 151.583 51.9386C155.509 51.4063 159.29 49.6211 162.306 46.605C165.322 43.5889 167.107 39.8077 167.64 35.8824ZM149.022 44.1544C150.142 41.8702 151.639 39.7412 153.535 37.8451C157.494 33.8865 162.506 31.6355 167.673 31.0811C167.185 27.0449 165.4 23.1417 162.306 20.048L149.022 6.7529L135.738 20.0369C132.644 23.1306 130.848 27.0338 130.371 31.07C135.538 31.6244 140.55 33.8754 144.509 37.834C146.405 39.7301 147.913 41.8702 149.022 44.1544ZM130.404 73.1176C130.937 69.1923 132.722 65.4111 135.738 62.395C138.754 59.3789 142.535 57.6048 146.461 57.0614C145.928 60.9868 144.143 64.768 141.127 67.784C138.111 70.8001 134.33 72.5854 130.404 73.1176ZM167.64 73.1176C163.714 72.5854 159.933 70.8001 156.917 67.784C153.901 64.768 152.127 60.9868 151.583 57.0614C155.509 57.5937 159.29 59.3789 162.306 62.395C165.322 65.4111 167.107 69.1923 167.64 73.1176ZM149.022 64.8456C150.142 67.1298 151.639 69.2588 153.535 71.1549C157.494 75.1135 162.506 77.3645 167.673 77.9189C167.185 81.9551 165.4 85.8583 162.306 88.952L149.022 102.247L135.738 88.9631C132.644 85.8694 130.848 81.9662 130.371 77.93C135.538 77.3756 140.55 75.1246 144.509 71.166C146.405 69.2699 147.913 67.1298 149.022 64.8456ZM196.769 54.5L183.485 41.216C180.391 38.1223 176.488 36.3259 172.452 35.8491C171.898 41.0164 169.647 46.0284 165.688 49.987C163.792 51.8831 161.652 53.3912 159.379 54.5C161.663 55.6199 163.792 57.1169 165.688 59.013C169.647 62.9716 171.898 67.9836 172.452 73.1509C176.488 72.663 180.391 70.8777 183.485 67.784L196.769 54.5ZM94.522 54.5L111.188 37.834C115.202 33.8199 120.314 31.5579 125.57 31.0478C126.08 25.7919 128.342 20.6801 132.367 16.666L149.022 0L165.688 16.666C169.702 20.6801 171.975 25.7919 172.474 31.0478C177.73 31.5579 182.842 33.8199 186.856 37.8451L203.522 54.5L186.867 71.166C182.842 75.1801 177.73 77.4532 172.474 77.9522C171.964 83.2081 169.702 88.3199 165.677 92.334L149.022 109L132.356 92.3451C128.342 88.3199 126.08 83.2081 125.57 77.9522C120.314 77.4421 115.202 75.1801 111.188 71.1549L94.522 54.5ZM138.676 54.5C136.392 53.3801 134.263 51.8831 132.367 49.987C128.408 46.0284 126.157 41.0164 125.603 35.8491C121.567 36.337 117.664 38.1223 114.57 41.216L101.275 54.5L114.559 67.784C117.653 70.8777 121.556 72.6741 125.592 73.1509C126.146 67.9836 128.397 62.9716 132.356 59.013C134.252 57.1169 136.392 55.6199 138.676 54.5Z" fill="white"/>
<path fill-rule="evenodd" clip-rule="evenodd" d="M147.48 20.1478C146.627 19.294 146.627 17.919 147.48 17.0652C148.334 16.2114 149.709 16.2114 150.563 17.0652C151.417 17.919 151.417 19.294 150.563 20.1478C149.709 21.0016 148.334 21.0016 147.48 20.1478Z" fill="white"/>
<path fill-rule="evenodd" clip-rule="evenodd" d="M147.48 91.9349C146.627 91.0811 146.627 89.7061 147.48 88.8523C148.334 87.9985 149.709 87.9985 150.563 88.8523C151.417 89.7061 151.417 91.0811 150.563 91.9349C149.709 92.7887 148.334 92.7887 147.48 91.9349Z" fill="white"/>
<path fill-rule="evenodd" clip-rule="evenodd" d="M183.374 56.0413C182.52 55.1875 182.52 53.8125 183.374 52.9587C184.228 52.1049 185.603 52.1049 186.457 52.9587C187.311 53.8125 187.311 55.1875 186.457 56.0413C185.603 56.8951 184.228 56.8951 183.374 56.0413Z" fill="white"/>
<path fill-rule="evenodd" clip-rule="evenodd" d="M114.67 56.0413C115.524 55.1875 115.524 53.8125 114.67 52.9587C113.816 52.1049 112.441 52.1049 111.587 52.9587C110.733 53.8125 110.733 55.1875 111.587 56.0413C112.441 56.8951 113.827 56.8951 114.67 56.0413Z" fill="white"/>
<path d="M149.022 21.0237C150.369 21.0237 151.461 19.9315 151.461 18.5842C151.461 17.237 150.369 16.1448 149.022 16.1448C147.674 16.1448 146.582 17.237 146.582 18.5842C146.582 19.9315 147.674 21.0237 149.022 21.0237Z" fill="white"/>
<path d="M184.949 56.9507C186.296 56.9507 187.388 55.8585 187.388 54.5112C187.388 53.164 186.296 52.0718 184.949 52.0718C183.601 52.0718 182.509 53.164 182.509 54.5112C182.509 55.8585 183.601 56.9507 184.949 56.9507Z" fill="white"/>
<path d="M113.095 56.9507C114.443 56.9507 115.535 55.8585 115.535 54.5112C115.535 53.164 114.443 52.0718 113.095 52.0718C111.748 52.0718 110.656 53.164 110.656 54.5112C110.656 55.8585 111.748 56.9507 113.095 56.9507Z" fill="white"/>
<path d="M149.022 92.7664C150.369 92.7664 151.461 91.6742 151.461 90.3269C151.461 88.9796 150.369 87.8875 149.022 87.8875C147.674 87.8875 146.582 88.9796 146.582 90.3269C146.582 91.6742 147.674 92.7664 149.022 92.7664Z" fill="white"/>
</svg>
