<svg width="59" height="59" viewBox="0 0 60 60" fill="none" xmlns="http://www.w3.org/2000/svg">
<path fill-rule="evenodd" clip-rule="evenodd" d="M19.9446 20.3396C20.2327 22.4643 21.199 24.511 22.8315 26.1435C24.4641 27.7761 26.5108 28.7364 28.6355 29.0305C28.3474 26.9058 27.3811 24.8591 25.7485 23.2266C24.116 21.594 22.0693 20.6337 19.9446 20.3396ZM40.0994 20.3396C37.9747 20.6277 35.928 21.594 34.2954 23.2266C32.6629 24.8591 31.7025 26.9058 31.4084 29.0305C33.5332 28.7424 35.5799 27.7761 37.2124 26.1435C38.845 24.511 39.8113 22.4643 40.0994 20.3396ZM30.022 24.8171C30.6282 23.5807 31.4385 22.4283 32.4648 21.4019C34.6075 19.2592 37.3204 18.0408 40.1174 17.7407C39.8533 15.556 38.887 13.4432 37.2124 11.7687L30.022 4.57223L22.8315 11.7627C21.157 13.4372 20.1846 15.55 19.9265 17.7347C22.7235 18.0348 25.4364 19.2532 27.5791 21.3959C28.6055 22.4223 29.4218 23.5807 30.022 24.8171ZM19.9446 40.4944C20.2327 38.3697 21.199 36.323 22.8315 34.6904C24.4641 33.0579 26.5108 32.0976 28.6355 31.8035C28.3474 33.9282 27.3811 35.9749 25.7485 37.6074C24.116 39.24 22.0693 40.2063 19.9446 40.4944ZM40.0994 40.4944C37.9747 40.2063 35.928 39.24 34.2954 37.6074C32.6629 35.9749 31.7025 33.9282 31.4084 31.8035C33.5332 32.0916 35.5799 33.0579 37.2124 34.6904C38.845 36.323 39.8113 38.3697 40.0994 40.4944ZM30.022 36.0169C30.6282 37.2533 31.4385 38.4057 32.4648 39.432C34.6075 41.5748 37.3204 42.7932 40.1174 43.0933C39.8533 45.278 38.887 47.3907 37.2124 49.0653L30.022 56.2618L22.8315 49.0713C21.157 47.3967 20.1846 45.284 19.9265 43.0993C22.7235 42.7992 25.4364 41.5808 27.5791 39.438C28.6055 38.4117 29.4218 37.2533 30.022 36.0169ZM55.8667 30.417L48.6763 23.2266C47.0017 21.552 44.889 20.5797 42.7043 20.3216C42.4042 23.1185 41.1858 25.8314 39.043 27.9742C38.0167 29.0005 36.8583 29.8168 35.6279 30.417C36.8643 31.0232 38.0167 31.8335 39.043 32.8598C41.1858 35.0025 42.4042 37.7155 42.7043 40.5124C44.889 40.2483 47.0017 39.282 48.6763 37.6074L55.8667 30.417ZM0.521973 30.417L9.54303 21.3959C11.7158 19.2232 14.4827 17.9988 17.3277 17.7227C17.6038 14.8777 18.8282 12.1108 21.0069 9.93805L30.022 0.916992L39.043 9.93805C41.2158 12.1108 42.4462 14.8777 42.7163 17.7227C45.5612 17.9988 48.3282 19.2232 50.5009 21.4019L59.522 30.417L50.5069 39.438C48.3282 41.6108 45.5612 42.8412 42.7163 43.1113C42.4402 45.9563 41.2158 48.7232 39.037 50.8959L30.022 59.917L21.0009 50.9019C18.8282 48.7232 17.6038 45.9563 17.3277 43.1113C14.4827 42.8352 11.7158 41.6108 9.54303 39.432L0.521973 30.417ZM24.4221 30.417C23.1857 29.8108 22.0333 29.0005 21.0069 27.9742C18.8642 25.8314 17.6458 23.1185 17.3457 20.3216C15.1609 20.5857 13.0482 21.552 11.3737 23.2266L4.17721 30.417L11.3676 37.6074C13.0422 39.282 15.1549 40.2543 17.3397 40.5124C17.6398 37.7155 18.8582 35.0025 21.0009 32.8598C22.0273 31.8335 23.1857 31.0232 24.4221 30.417Z" fill="#507CEB"/>
<path fill-rule="evenodd" clip-rule="evenodd" d="M29.1877 11.8226C28.7255 11.3604 28.7255 10.6161 29.1877 10.154C29.6498 9.69183 30.3941 9.69183 30.8562 10.154C31.3184 10.6161 31.3184 11.3604 30.8562 11.8226C30.3941 12.2847 29.6498 12.2847 29.1877 11.8226Z" fill="#507CEB"/>
<path fill-rule="evenodd" clip-rule="evenodd" d="M29.1877 50.68C28.7255 50.2178 28.7255 49.4736 29.1877 49.0114C29.6498 48.5493 30.3941 48.5493 30.8562 49.0114C31.3184 49.4736 31.3184 50.2178 30.8562 50.68C30.3941 51.1421 29.6498 51.1421 29.1877 50.68Z" fill="#507CEB"/>
<path fill-rule="evenodd" clip-rule="evenodd" d="M48.6164 31.2513C48.1542 30.7891 48.1542 30.0449 48.6164 29.5827C49.0785 29.1205 49.8228 29.1205 50.285 29.5827C50.7471 30.0449 50.7471 30.7891 50.285 31.2513C49.8228 31.7134 49.0785 31.7134 48.6164 31.2513Z" fill="#507CEB"/>
<path fill-rule="evenodd" clip-rule="evenodd" d="M11.4275 31.2513C11.8897 30.7891 11.8897 30.0449 11.4275 29.5827C10.9654 29.1205 10.2211 29.1205 9.75897 29.5827C9.29681 30.0449 9.29681 30.7891 9.75897 31.2513C10.2211 31.7134 10.9714 31.7134 11.4275 31.2513Z" fill="#507CEB"/>
<path d="M30.0219 12.2969C30.7511 12.2969 31.3423 11.7057 31.3423 10.9765C31.3423 10.2472 30.7511 9.65601 30.0219 9.65601C29.2926 9.65601 28.7014 10.2472 28.7014 10.9765C28.7014 11.7057 29.2926 12.2969 30.0219 12.2969Z" fill="#507CEB"/>
<path d="M49.4686 31.7434C50.1979 31.7434 50.7891 31.1522 50.7891 30.423C50.7891 29.6937 50.1979 29.1025 49.4686 29.1025C48.7394 29.1025 48.1482 29.6937 48.1482 30.423C48.1482 31.1522 48.7394 31.7434 49.4686 31.7434Z" fill="#507CEB"/>
<path d="M10.5753 31.7434C11.3046 31.7434 11.8958 31.1522 11.8958 30.423C11.8958 29.6937 11.3046 29.1025 10.5753 29.1025C9.84607 29.1025 9.25488 29.6937 9.25488 30.423C9.25488 31.1522 9.84607 31.7434 10.5753 31.7434Z" fill="#507CEB"/>
<path d="M30.0219 51.1302C30.7511 51.1302 31.3423 50.539 31.3423 49.8097C31.3423 49.0804 30.7511 48.4893 30.0219 48.4893C29.2926 48.4893 28.7014 49.0804 28.7014 49.8097C28.7014 50.539 29.2926 51.1302 30.0219 51.1302Z" fill="#507CEB"/>
</svg>
