<svg width="40" height="41" viewBox="0 0 40 41" fill="none" xmlns="http://www.w3.org/2000/svg" xmlns:xlink="http://www.w3.org/1999/xlink">
<rect y="0.5" width="40" height="40" rx="10" fill="url(#pattern0)"/>
<rect y="0.5" width="40" height="40" rx="10" fill="currentColor"/>
<path d="M19.5 22.1665C21.1108 22.1665 22.4167 23.4723 22.4167 25.0832C22.4167 26.694 21.1108 27.9998 19.5 27.9998C17.8892 27.9998 16.5833 26.694 16.5833 25.0832C16.5833 23.4723 17.8892 22.1665 19.5 22.1665Z" fill="#F7F8F2"/>
<path d="M14.9167 17.5835C16.5275 17.5835 17.8333 18.8893 17.8333 20.5002C17.8333 22.111 16.5275 23.4168 14.9167 23.4168C13.3058 23.4168 12 22.111 12 20.5002C12 18.8893 13.3058 17.5835 14.9167 17.5835Z" fill="#F7F8F2"/>
<path d="M19.5 13C21.1108 13 22.4167 14.3058 22.4167 15.9167C22.4167 17.5275 21.1108 18.8333 19.5 18.8333C17.8892 18.8333 16.5833 17.5275 16.5833 15.9167C16.5833 14.3058 17.8892 13 19.5 13Z" fill="#F7F8F2"/>
<path d="M24.0834 17.5835C25.6942 17.5835 27 18.8893 27 20.5002C27 22.111 25.6942 23.4168 24.0834 23.4168C22.4725 23.4168 21.1667 22.111 21.1667 20.5002C21.1667 18.8893 22.4725 17.5835 24.0834 17.5835Z" fill="#F7F8F2"/>
<defs>
<pattern id="pattern0" patternContentUnits="objectBoundingBox" width="1" height="1">
<use xlink:href="#image0_5_2733" transform="scale(0.005)"/>
</pattern>
</defs>
</svg>
