<svg width="24" height="24" viewBox="0 0 24 24" xmlns="http://www.w3.org/2000/svg" fill="none">

 <g>
  <path stroke="null" id="svg_1" fill="currentColor" d="m18,0.03625l-12,0c-3.312,0 -6,2.66925 -6,5.96093l0,8.35487c0,3.29168 2.688,5.96093 6,5.96093l1.8,0c0.324,0 0.756,0.21546 0.96,0.47879l1.8,2.38198c0.792,1.05334 2.088,1.05334 2.88,0l1.8,-2.38198c0.228,-0.29924 0.588,-0.47879 0.96,-0.47879l1.8,0c3.312,0 6,-2.66925 6,-5.96093l0,-8.35487c0,-3.29168 -2.688,-5.96093 -6,-5.96093zm-10.8,11.96973c-0.672,0 -1.2,-0.53864 -1.2,-1.19697c0,-0.65834 0.54,-1.19697 1.2,-1.19697c0.66,0 1.2,0.53864 1.2,1.19697c0,0.65834 -0.528,1.19697 -1.2,1.19697zm4.8,0c-0.672,0 -1.2,-0.53864 -1.2,-1.19697c0,-0.65834 0.54,-1.19697 1.2,-1.19697c0.66,0 1.2,0.53864 1.2,1.19697c0,0.65834 -0.528,1.19697 -1.2,1.19697zm4.8,0c-0.672,0 -1.2,-0.53864 -1.2,-1.19697c0,-0.65834 0.54,-1.19697 1.2,-1.19697c0.66,0 1.2,0.53864 1.2,1.19697c0,0.65834 -0.528,1.19697 -1.2,1.19697z"/>
 </g>
</svg>