<svg width="40" height="40" viewBox="0 0 40 40" fill="none" xmlns="http://www.w3.org/2000/svg">
<path d="M20 12.5L25 7.5L20 2.5" stroke="currentColor" stroke-width="1.5" stroke-linecap="round" stroke-linejoin="round"/>
<path d="M32.9904 15C34.6898 17.9435 35.3392 21.3769 34.8321 24.7377C34.3251 28.0986 32.6917 31.1876 30.1995 33.4987C27.7073 35.8098 24.5041 37.206 21.1146 37.4585C17.7251 37.7111 14.3504 36.805 11.5432 34.8888C8.736 32.9726 6.66282 30.1598 5.66329 26.9112C4.66375 23.6626 4.79712 20.1709 6.04155 17.008C7.28597 13.8452 9.56768 11.1987 12.5129 9.5022C15.458 7.80569 18.8921 7.1597 22.2524 7.67008" stroke="currentColor" stroke-width="1.5" stroke-linecap="round" stroke-linejoin="round"/>
<path d="M15.5306 27.6564C17.4121 27.6564 18.7923 26.4976 18.7923 24.9285V24.9155C18.7923 23.5809 17.8613 22.728 16.4941 22.6108V22.5848C17.666 22.3374 18.4863 21.5431 18.4863 20.3843V20.3713C18.4863 18.9455 17.3079 17.9494 15.5175 17.9494C13.7597 17.9494 12.5488 18.9715 12.399 20.5015L12.3925 20.5666H13.5188L13.5253 20.5015C13.623 19.5509 14.4108 18.965 15.5175 18.965C16.6634 18.965 17.3079 19.5314 17.3079 20.5145V20.5275C17.3079 21.465 16.5267 22.1551 15.4069 22.1551H14.2806V23.1447H15.4589C16.774 23.1447 17.6009 23.7892 17.6009 24.9416V24.9546C17.6009 25.9507 16.761 26.6408 15.5306 26.6408C14.2806 26.6408 13.4277 26.0028 13.3365 25.0783L13.33 25.0132H12.2037L12.2102 25.0913C12.3339 26.5757 13.5905 27.6564 15.5306 27.6564Z" fill="currentColor"/>
<path d="M23.8378 27.7215C25.9147 27.7215 27.1647 25.827 27.1647 22.8062V22.7931C27.1647 19.7723 25.9147 17.8843 23.8378 17.8843C21.761 17.8843 20.524 19.7723 20.524 22.7931V22.8062C20.524 25.827 21.761 27.7215 23.8378 27.7215ZM23.8378 26.6994C22.4902 26.6994 21.7024 25.202 21.7024 22.8062V22.7931C21.7024 20.3973 22.4902 18.9129 23.8378 18.9129C25.1855 18.9129 25.9863 20.3973 25.9863 22.7931V22.8062C25.9863 25.202 25.1855 26.6994 23.8378 26.6994Z" fill="currentColor"/>
</svg>
