<svg width="24" height="24" viewBox="0 0 24 24" xmlns="http://www.w3.org/2000/svg" fill="none">

 <g>
  <path stroke="null" id="svg_1" fill="currentColor" d="m8.3902,22.46929l0,-3.65968c0,-0.93416 0.80303,-1.69154 1.79362,-1.69154l3.62106,0c0.47573,0 0.93192,0.17821 1.26831,0.49551c0.33638,0.31717 0.52537,0.74745 0.52537,1.19604l0,3.65968c-0.00302,0.38839 0.15849,0.76193 0.44864,1.03757c0.29015,0.27564 0.68499,0.43064 1.09672,0.43064l2.47048,0c1.15379,0.00275 2.26146,-0.42752 3.07836,-1.19592c0.8169,-0.76839 1.27599,-1.81183 1.27599,-2.90003l0,-10.42591c0,-0.87898 -0.41311,-1.71275 -1.12809,-2.27668l-8.40408,-6.33003c-1.46183,-1.10987 -3.55647,-1.07404 -4.97473,0.08511l-8.2123,6.24492c-0.7487,0.54731 -1.19619,1.38355 -1.21831,2.27668l0,10.41525c0,2.26808 1.9495,4.1066 4.35432,4.1066l2.41406,0c0.85538,0 1.55053,-0.65086 1.55673,-1.45755l0.03384,-0.01065z"/>
 </g>
</svg>