<svg width="24" height="24" viewBox="0 0 24 24" xmlns="http://www.w3.org/2000/svg" fill="none">

 <g>
  <path stroke-width="0" stroke="null" id="svg_1" fill="currentColor" d="m11.99373,23.975c-0.86124,-0.76993 -1.79227,-1.37281 -2.79297,-1.80841c-1.00069,-0.4356 -2.04725,-0.65346 -3.13968,-0.65346c-0.76471,0 -1.50626,0.11148 -2.22465,0.33433c-0.71839,0.22284 -1.41397,0.53699 -2.08676,0.9422c-0.39667,0.22284 -0.78433,0.20765 -1.16297,-0.04559c-0.37864,-0.25324 -0.56796,-0.62306 -0.56796,-1.10936l0,-14.64962c0,-0.25603 0.05409,-0.50045 0.16227,-0.73321c0.10818,-0.23275 0.27046,-0.40373 0.48682,-0.51292c0.82273,-0.46604 1.69103,-0.82062 2.6049,-1.06377c0.91387,-0.24315 1.84173,-0.36472 2.78354,-0.36472c1.05051,0 2.07838,0.15078 3.08359,0.45234c1.00522,0.30156 1.95864,0.75863 2.86013,1.3712l0,15.50069c0.91955,-0.66865 1.88422,-1.17525 2.89389,-1.51967c1.00967,-0.34442 2.02843,-0.51669 3.05617,-0.51669c0.6491,0 1.35683,0.07088 2.12309,0.21275c0.76626,0.14188 1.49768,0.4356 2.19406,0.88141l0,-15.47024c0.18672,0.08104 0.3688,0.16209 0.54632,0.24315c0.17753,0.08104 0.3504,0.17222 0.51863,0.27354c0.1983,0.14972 0.35614,0.3287 0.4733,0.53695c0.11716,0.20824 0.1758,0.44463 0.1758,0.70918l0,14.68001c0,0.48629 -0.18932,0.85102 -0.56796,1.09416c-0.37864,0.24315 -0.76626,0.25324 -1.16297,0.03039c-0.67019,-0.4052 -1.363,-0.71935 -2.07852,-0.9422c-0.71552,-0.22284 -1.45733,-0.33433 -2.22554,-0.33433c-1.0973,0 -2.1484,0.21786 -3.15331,0.65346c-1.0048,0.4356 -1.93788,1.03848 -2.79923,1.80841zm1.62902,-5.16688l0,-10.85044l7.03188,-7.93268l0,11.88382l-7.03188,6.8993z"/>
 </g>
</svg>