<svg width="24" height="20" viewBox="0 0 24 20" fill="none" xmlns="http://www.w3.org/2000/svg">
<path d="M11.9942 19.8001C11.1981 19.1668 10.3375 18.6709 9.41249 18.3126C8.48749 17.9543 7.52009 17.7751 6.51029 17.7751C5.80342 17.7751 5.11796 17.8668 4.45391 18.0501C3.78986 18.2334 3.14689 18.4918 2.52499 18.8251C2.15832 19.0084 1.79999 18.9959 1.44999 18.7876C1.09999 18.5793 0.924988 18.2751 0.924988 17.8751V5.8251C0.924988 5.6145 0.974988 5.41346 1.07499 5.222C1.17499 5.03055 1.32499 4.88991 1.52499 4.8001C2.28549 4.41676 3.08811 4.1251 3.93286 3.9251C4.77761 3.7251 5.63528 3.6251 6.50586 3.6251C7.47691 3.6251 8.42703 3.74912 9.35621 3.99717C10.2854 4.24522 11.1667 4.62118 12 5.12505V17.8751C12.85 17.3251 13.7417 16.9084 14.675 16.6251C15.6083 16.3418 16.55 16.2001 17.5 16.2001C18.1 16.2001 18.7542 16.2584 19.4625 16.3751C20.1708 16.4918 20.8469 16.7334 21.4906 17.1001V4.3751C21.6632 4.44176 21.8315 4.50843 21.9956 4.5751C22.1597 4.64176 22.3195 4.71676 22.475 4.8001C22.6583 4.92325 22.8042 5.07047 22.9125 5.24177C23.0208 5.41306 23.075 5.6075 23.075 5.8251V17.9001C23.075 18.3001 22.9 18.6001 22.55 18.8001C22.2 19.0001 21.8417 19.0084 21.475 18.8251C20.8555 18.4918 20.2151 18.2334 19.5537 18.0501C18.8923 17.8668 18.2066 17.7751 17.4965 17.7751C16.4822 17.7751 15.5106 17.9543 14.5817 18.3126C13.6529 18.6709 12.7904 19.1668 11.9942 19.8001ZM13.5 15.5501V6.6251L20 0.100098V9.8751L13.5 15.5501Z" fill='currentColor'/>
</svg>
