<svg width="56" height="56" viewBox="0 0 56 56" fill="none" xmlns="http://www.w3.org/2000/svg">
<rect width="56" height="56" rx="14" fill="#507CEB"/>
<path d="M28.854 36.168C26.502 36.168 24.759 35.559 23.625 34.341C22.505 33.109 21.945 31.198 21.945 28.608C21.945 23.624 24.283 21.132 28.959 21.132C29.407 21.132 29.869 21.167 30.345 21.237C30.835 21.293 31.297 21.384 31.731 21.51C32.165 21.622 32.522 21.762 32.802 21.93C33.166 22.14 33.348 22.364 33.348 22.602C33.348 22.798 33.271 23.057 33.117 23.379C32.963 23.687 32.781 23.967 32.571 24.219C32.361 24.457 32.165 24.576 31.983 24.576C31.899 24.576 31.738 24.52 31.5 24.408C31.276 24.296 30.954 24.184 30.534 24.072C30.114 23.96 29.568 23.904 28.896 23.904C27.664 23.904 26.747 24.296 26.145 25.08C25.557 25.864 25.263 27.047 25.263 28.629C25.263 30.197 25.557 31.387 26.145 32.199C26.747 33.011 27.65 33.417 28.854 33.417C29.526 33.417 30.093 33.347 30.555 33.207C31.031 33.067 31.416 32.927 31.71 32.787C32.004 32.647 32.2 32.577 32.298 32.577C32.522 32.577 32.725 32.703 32.907 32.955C33.103 33.207 33.257 33.48 33.369 33.774C33.481 34.068 33.537 34.278 33.537 34.404C33.537 34.6 33.467 34.782 33.327 34.95C33.201 35.104 33.026 35.244 32.802 35.37C32.466 35.552 32.06 35.706 31.584 35.832C31.122 35.944 30.646 36.028 30.156 36.084C29.68 36.14 29.246 36.168 28.854 36.168Z" fill="white"/>
</svg>