<svg width="24" height="24" viewBox="0 0 24 24" xmlns="http://www.w3.org/2000/svg" fill="none">

 <g>
  <path stroke="null" id="svg_1" fill="currentColor" d="m4.89696,23.96249c-0.6196,0 -1.1334,-0.2284 -1.54139,-0.6852c-0.40802,-0.45665 -0.61202,-1.0319 -0.61202,-1.72544c0,-0.49249 0.10713,-0.96354 0.3214,-1.41285c0.21427,-0.44931 0.52496,-0.76997 0.93207,-0.96181l5.46388,-2.41064l0,-4.38953c-1.32847,1.82298 -2.76408,3.21414 -4.30682,4.17365c-1.54274,0.95951 -3.24619,1.43919 -5.11033,1.43919l0,-2.62652c1.52131,0 2.898,-0.36584 4.13005,-1.09738c1.23205,-0.73158 2.33018,-1.79176 3.2944,-3.18051l1.86415,-2.37836c0.24262,-0.33581 0.52458,-0.60565 0.84591,-0.80954c0.32134,-0.20389 0.67147,-0.30583 1.05038,-0.30583l1.54274,0c0.37887,0 0.73434,0.10194 1.06642,0.30583c0.33208,0.20389 0.61941,0.47374 0.86201,0.80954l1.86415,2.37836c1.02849,1.34078 2.13734,2.38895 3.32654,3.14453c1.1892,0.75557 2.5445,1.13336 4.06577,1.13336l0,2.62652c-1.84268,0 -3.54085,-0.47968 -5.09426,-1.43919c-1.55341,-0.95951 -2.99446,-2.35067 -4.32289,-4.17365l0,4.38953l5.46388,2.41064c0.40716,0.19184 0.71776,0.5125 0.93207,0.96181c0.21431,0.44931 0.3214,0.92036 0.3214,1.41285c0,0.69355 -0.20403,1.26879 -0.61195,1.72544c-0.40806,0.4568 -0.92179,0.6852 -1.54146,0.6852l-9.83498,0l0,-0.5397c0,-0.64763 0.18748,-1.18129 0.56246,-1.6011c0.37498,-0.41981 0.85554,-0.62965 1.44169,-0.62965l4.19896,0c0.17137,0 0.3214,-0.07196 0.44997,-0.21588c0.12856,-0.14392 0.19284,-0.31187 0.19284,-0.50372c0,-0.19184 -0.06428,-0.3598 -0.19284,-0.50372c-0.12856,-0.14392 -0.27859,-0.21588 -0.44997,-0.21588l-4.2104,0c-0.97878,0 -1.75915,0.33778 -2.34111,1.01319c-0.58196,0.67541 -0.87293,1.56109 -0.87293,2.65674l0,0.5397l-3.14976,0zm7.10304,-18.34966c-0.68566,0 -1.27491,-0.27585 -1.76772,-0.82753c-0.49282,-0.55168 -0.73923,-1.21132 -0.73923,-1.97888c0,-0.76756 0.24641,-1.4272 0.73923,-1.97888c0.49282,-0.55168 1.08207,-0.82753 1.76772,-0.82753c0.68566,0 1.27495,0.27585 1.76772,0.82753c0.49278,0.55168 0.73923,1.21132 0.73923,1.97888c0,0.76756 -0.24645,1.4272 -0.73923,1.97888c-0.49278,0.55168 -1.08207,0.82753 -1.76772,0.82753z"/>
 </g>
</svg>