<svg xmlns="http://www.w3.org/2000/svg" width="19" height="17" viewBox="0 0 19 17" fill="none">
<path 
fill="currentColor"
d="M3.775 16.65C3.29305 16.65 2.8934 16.4913 2.57605 16.1739C2.25868 15.8566 2.1 15.4569 2.1 14.975C2.1 14.6328 2.18333 14.3055 2.35 13.9933C2.51667 13.6811 2.75833 13.4583 3.075 13.325L7.325 11.65V8.6C6.29167 9.86667 5.175 10.8333 3.975 11.5C2.775 12.1667 1.45 12.5 0 12.5V10.675C1.18333 10.675 2.25417 10.4208 3.2125 9.9125C4.17083 9.40417 5.025 8.66752 5.775 7.70257L7.225 6.05C7.41372 5.81667 7.63304 5.62917 7.88298 5.4875C8.13293 5.34583 8.40527 5.275 8.7 5.275H9.9C10.1947 5.275 10.4712 5.34583 10.7295 5.4875C10.9878 5.62917 11.2113 5.81667 11.4 6.05L12.85 7.70257C13.65 8.63419 14.5125 9.3625 15.4375 9.8875C16.3625 10.4125 17.4167 10.675 18.6 10.675V12.5C17.1667 12.5 15.8458 12.1667 14.6375 11.5C13.4292 10.8333 12.3083 9.86667 11.275 8.6V11.65L15.525 13.325C15.8417 13.4583 16.0833 13.6811 16.25 13.9933C16.4167 14.3055 16.5 14.6328 16.5 14.975C16.5 15.4569 16.3413 15.8566 16.024 16.1739C15.7066 16.4913 15.307 16.65 14.825 16.65H7.175V16.275C7.175 15.825 7.32083 15.4542 7.6125 15.1625C7.90417 14.8708 8.27797 14.725 8.7339 14.725H12C12.1333 14.725 12.25 14.675 12.35 14.575C12.45 14.475 12.5 14.3583 12.5 14.225C12.5 14.0917 12.45 13.975 12.35 13.875C12.25 13.775 12.1333 13.725 12 13.725H8.725C7.96367 13.725 7.35667 13.9597 6.904 14.429C6.45133 14.8983 6.225 15.5137 6.225 16.275V16.65H3.775ZM9.3 3.9C8.76667 3.9 8.30833 3.70833 7.925 3.325C7.54167 2.94167 7.35 2.48333 7.35 1.95C7.35 1.41667 7.54167 0.958333 7.925 0.575C8.30833 0.191667 8.76667 0 9.3 0C9.83333 0 10.2917 0.191667 10.675 0.575C11.0583 0.958333 11.25 1.41667 11.25 1.95C11.25 2.48333 11.0583 2.94167 10.675 3.325C10.2917 3.70833 9.83333 3.9 9.3 3.9Z" fill="#507CEB"/>
</svg>