<svg viewBox="0 0 83 83" fill="none" xmlns="http://www.w3.org/2000/svg">
    <path id="Vector" d="M32.0996 46.3914C31.7826 46.3914 31.5201 46.2894 31.312 46.0854C31.104 45.8814 31 45.6332 31 45.3408C31 45.0484 31.104 44.8019 31.312 44.6014C31.5201 44.401 31.7826 44.3007 32.0996 44.3007H33.3774V35.5656C33.3774 33.8854 33.8876 32.3723 34.9079 31.0263C35.9282 29.6802 37.2902 28.8162 38.9941 28.4344V27.9189C38.9941 27.4065 39.1878 26.9586 39.5753 26.5752C39.9628 26.1917 40.4333 26 40.9869 26C41.5405 26 42.0104 26.1917 42.3967 26.5752C42.7831 26.9586 42.9762 27.4065 42.9762 27.9189V28.4344C44.68 28.8162 46.0471 29.6769 47.0773 31.0163C48.1075 32.3557 48.6226 33.8721 48.6226 35.5656V44.3007H49.9004C50.2065 44.3007 50.4663 44.401 50.6798 44.6014C50.8933 44.8019 51 45.0484 51 45.3408C51 45.6332 50.8933 45.8814 50.6798 46.0854C50.4663 46.2894 50.2065 46.3914 49.9004 46.3914H32.0996ZM40.9841 50C40.281 50 39.6794 49.7588 39.1794 49.2765C38.6794 48.7941 38.4294 48.2143 38.4294 47.537H43.5409C43.5409 48.2243 43.2905 48.8067 42.7898 49.284C42.2891 49.7613 41.6872 50 40.9841 50Z" fill="currentColor"/>
</svg>
