<svg width="34" height="35" viewBox="0 0 34 35" fill="none" xmlns="http://www.w3.org/2000/svg">
<path d="M17 0.833496C7.81665 0.833496 0.333313 8.31683 0.333313 17.5002C0.333313 26.6835 7.81665 34.1668 17 34.1668C26.1833 34.1668 33.6666 26.6835 33.6666 17.5002C33.6666 8.31683 26.1833 0.833496 17 0.833496ZM23.6666 18.7502H18.25V24.1668C18.25 24.8502 17.6833 25.4168 17 25.4168C16.3166 25.4168 15.75 24.8502 15.75 24.1668V18.7502H10.3333C9.64998 18.7502 9.08331 18.1835 9.08331 17.5002C9.08331 16.8168 9.64998 16.2502 10.3333 16.2502H15.75V10.8335C15.75 10.1502 16.3166 9.5835 17 9.5835C17.6833 9.5835 18.25 10.1502 18.25 10.8335V16.2502H23.6666C24.35 16.2502 24.9166 16.8168 24.9166 17.5002C24.9166 18.1835 24.35 18.7502 23.6666 18.7502Z" fill="currentColor"/>
</svg>
