<svg width="18" height="18" viewBox="0 0 18 18" fill="none" xmlns="http://www.w3.org/2000/svg">
<path d="M9 8.97578C7.80897 8.97578 6.84038 8.60271 6.09423 7.85656C5.34808 7.11042 4.975 6.14183 4.975 4.95078C4.975 3.75973 5.34808 2.79114 6.09423 2.04501C6.84038 1.29886 7.80897 0.925781 9 0.925781C10.1911 0.925781 11.1596 1.29886 11.9058 2.04501C12.6519 2.79114 13.025 3.75973 13.025 4.95078C13.025 6.14183 12.6519 7.11042 11.9058 7.85656C11.1596 8.60271 10.1911 8.97578 9 8.97578ZM2.45 17.9008C1.93333 17.9008 1.5 17.7258 1.15 17.3758C0.8 17.0258 0.625 16.5924 0.625 16.0758V15.1856C0.625 14.4957 0.790883 13.9048 1.12265 13.4128C1.45442 12.9207 1.88853 12.5501 2.425 12.3008C3.575 11.7674 4.68788 11.3716 5.76365 11.1133C6.83942 10.8549 7.91858 10.7258 9.00115 10.7258C10.0837 10.7258 11.1583 10.8591 12.225 11.1258C13.2917 11.3924 14.4 11.7841 15.55 12.3008C16.1031 12.5501 16.5456 12.9207 16.8773 13.4128C17.2091 13.9048 17.375 14.4957 17.375 15.1856V16.0758C17.375 16.5924 17.2 17.0258 16.85 17.3758C16.5 17.7258 16.0667 17.9008 15.55 17.9008H2.45Z" fill="currentColor"/>
</svg>
