<svg viewBox="0 0 83 83" fill="none" xmlns="http://www.w3.org/2000/svg">
    <path id="Vector" d="M31 54C30.4667 54 30 53.8 29.6 53.4C29.2 53 29 52.5333 29 52V32C29 31.4667 29.2 31 29.6 30.6C30 30.2 30.4667 30 31 30H39.9667C40.25 30 40.4875 30.0964 40.6792 30.2892C40.8708 30.482 40.9667 30.7209 40.9667 31.0058C40.9667 31.2908 40.8708 31.5278 40.6792 31.7167C40.4875 31.9056 40.25 32 39.9667 32H31V52H39.9667C40.25 52 40.4875 52.0964 40.6792 52.2892C40.8708 52.482 40.9667 52.7209 40.9667 53.0058C40.9667 53.2908 40.8708 53.5278 40.6792 53.7167C40.4875 53.9056 40.25 54 39.9667 54H31ZM49.1667 43H38C37.7167 43 37.4792 42.9036 37.2875 42.7108C37.0958 42.518 37 42.2791 37 41.9942C37 41.7092 37.0958 41.4722 37.2875 41.2833C37.4792 41.0944 37.7167 41 38 41H49.1L46.4 38.3C46.2 38.1 46.1056 37.8667 46.1167 37.6C46.1278 37.3333 46.2333 37.1 46.4333 36.9C46.6333 36.7 46.8722 36.6 47.15 36.6C47.4278 36.6 47.6667 36.7 47.8667 36.9L52.3 41.3333C52.5 41.5333 52.6 41.7667 52.6 42.0333C52.6 42.3 52.5 42.5333 52.3 42.7333L47.9 47.1333C47.7044 47.3333 47.4722 47.4278 47.2033 47.4167C46.9344 47.4056 46.6957 47.3 46.487 47.1C46.2957 46.9 46.2 46.6611 46.2 46.3833C46.2 46.1056 46.3 45.8667 46.5 45.6667L49.1667 43Z" fill="currentColor"/>
</svg>
