<svg width="77" height="77" viewBox="0 0 77 77" fill="none" xmlns="http://www.w3.org/2000/svg">
<path d="M26.872 27H48.088C48.5872 27 49.024 27.1842 49.3984 27.5526C49.7728 27.921 49.96 28.3508 49.96 28.842V43.5779C49.96 44.0691 49.7728 44.4989 49.3984 44.8673C49.024 45.2357 48.5872 45.4199 48.088 45.4199H42.0352V50.0555C42.0352 50.4035 41.8844 50.6695 41.5828 50.8537C41.2812 51.0379 40.9744 51.0482 40.6624 50.8844L37.9168 49.5029C37.7712 49.4415 37.6256 49.4108 37.48 49.4108C37.3344 49.4108 37.1888 49.4415 37.0432 49.5029L34.2976 50.8844C33.9856 51.0482 33.6788 51.0379 33.3772 50.8537C33.0756 50.6695 32.9248 50.4035 32.9248 50.0555V45.4199H26.872C26.3728 45.4199 25.936 45.2357 25.5616 44.8673C25.1872 44.4989 25 44.0691 25 43.5779V28.842C25 28.3508 25.1872 27.921 25.5616 27.5526C25.936 27.1842 26.3728 27 26.872 27ZM26.872 40.4158H48.088V37.1002H26.872V40.4158Z" fill="currentColor"/>
</svg>
