<svg width="25" height="24" viewBox="0 0 25 24" fill="none" xmlns="http://www.w3.org/2000/svg">
	<path d="M1.872 0H23.088C23.5872 0 24.024 0.184199 24.3984 0.552596C24.7728 0.920993 24.96 1.35079 24.96 1.84199V16.5779C24.96 17.0691 24.7728 17.4989 24.3984 17.8673C24.024 18.2357 23.5872 18.4199 23.088 18.4199H17.0352V23.0555C17.0352 23.4035 16.8844 23.6695 16.5828 23.8537C16.2812 24.0379 15.9744 24.0482 15.6624 23.8844L12.9168 22.5029C12.7712 22.4415 12.6256 22.4108 12.48 22.4108C12.3344 22.4108 12.1888 22.4415 12.0432 22.5029L9.2976 23.8844C8.9856 24.0482 8.6788 24.0379 8.3772 23.8537C8.0756 23.6695 7.9248 23.4035 7.9248 23.0555V18.4199H1.872C1.3728 18.4199 0.936 18.2357 0.5616 17.8673C0.1872 17.4989 0 17.0691 0 16.5779V1.84199C0 1.35079 0.1872 0.920993 0.5616 0.552596C0.936 0.184199 1.3728 0 1.872 0ZM1.872 13.4158H23.088V10.1002H1.872V13.4158Z" fill="currentColor"/>
</svg>
