<svg width="22" height="24" viewBox="0 0 22 24" fill="none" xmlns="http://www.w3.org/2000/svg">
<path d="M3.36667 24C2.81667 24 2.34583 23.8042 1.95417 23.4125C1.5625 23.0208 1.36667 22.55 1.36667 22V3H1C0.716667 3 0.479167 2.90361 0.2875 2.71083C0.0958333 2.51803 0 2.27915 0 1.99417C0 1.70917 0.0958333 1.47222 0.2875 1.28333C0.479167 1.09444 0.716667 1 1 1H6.26667C6.26667 0.711111 6.3625 0.472222 6.55417 0.283333C6.74583 0.0944445 6.98333 0 7.26667 0H14.0667C14.35 0 14.5875 0.0958333 14.7792 0.2875C14.9708 0.479167 15.0667 0.716667 15.0667 1H20.3333C20.6167 1 20.8542 1.09639 21.0458 1.28917C21.2375 1.48197 21.3333 1.72086 21.3333 2.00583C21.3333 2.29083 21.2375 2.52778 21.0458 2.71667C20.8542 2.90556 20.6167 3 20.3333 3H19.9667V22C19.9667 22.55 19.7708 23.0208 19.3792 23.4125C18.9875 23.8042 18.5167 24 17.9667 24H3.36667ZM6.9 19.1333H8.9V5.83333H6.9V19.1333ZM12.4333 19.1333H14.4333V5.83333H12.4333V19.1333Z" fill="white"/>
</svg>
