<svg width="24" height="24" viewBox="0 0 24 24" xmlns="http://www.w3.org/2000/svg" fill="none">

 <g>
  <path stroke="null" style="vector-effect: non-scaling-stroke;" id="svg_1" fill="currentColor" d="m12,11.38369c-1.69766,0 -3.07826,-0.52554 -4.14181,-1.57663c-1.06354,-1.05107 -1.59532,-2.41552 -1.59532,-4.09334c0,-1.67782 0.53178,-3.04226 1.59532,-4.09333c1.06354,-1.05109 2.44414,-1.57663 4.14181,-1.57663c1.69776,0 3.07824,0.52554 4.14185,1.57663c1.06347,1.05107 1.59528,2.41551 1.59528,4.09333c0,1.67782 -0.53181,3.04228 -1.59528,4.09334c-1.06361,1.05109 -2.44409,1.57663 -4.14185,1.57663zm-9.33619,12.57256c-0.73645,0 -1.3541,-0.24652 -1.85299,-0.73956c-0.49888,-0.49304 -0.74832,-1.10343 -0.74832,-1.8313l0,-1.25387c0,-0.97185 0.23644,-1.80439 0.70934,-2.49747c0.4729,-0.69308 1.09166,-1.21528 1.85633,-1.56646c1.63918,-0.75125 3.22545,-1.30895 4.75882,-1.67282c1.53337,-0.36386 3.07158,-0.54587 4.61465,-0.54587c1.54304,0 3.07474,0.18778 4.59519,0.56348c1.52045,0.3757 3.10019,0.92734 4.73937,1.65521c0.78837,0.35119 1.4191,0.87339 1.8919,1.56646c0.47294,0.69308 0.70941,1.52561 0.70941,2.49747l0,1.25387c0,0.72787 -0.24944,1.33826 -0.74832,1.8313c-0.49888,0.49304 -1.11649,0.73956 -1.85299,0.73956l-18.67239,0z"/>
 </g>
</svg>