<?xml version="1.0" standalone="no"?>
<!DOCTYPE svg PUBLIC "-//W3C//DTD SVG 20010904//EN"
 "http://www.w3.org/TR/2001/REC-SVG-20010904/DTD/svg10.dtd">
<svg version="1.0" xmlns="http://www.w3.org/2000/svg"
 width="700.000000pt" height="700.000000pt" viewBox="0 0 700.000000 700.000000"
 preserveAspectRatio="xMidYMid meet">
<metadata>
Created by potrace 1.14, written by Peter Selinger 2001-2017
</metadata>
<g transform="translate(0.000000,700.000000) scale(0.100000,-0.100000)"
fill="#000000" stroke="none">
<path d="M2928 6317 c-312 -315 -578 -585 -591 -602 -123 -156 -248 -413 -281
-577 -10 -48 -25 -134 -30 -166 -2 -19 -6 -35 -8 -37 -2 -2 -24 -6 -50 -9
-245 -30 -509 -141 -721 -303 -34 -26 -315 -300 -624 -609 l-562 -561 567
-567 c312 -311 600 -591 640 -621 204 -153 449 -254 706 -290 48 -7 48 -6 52
-47 2 -18 7 -49 11 -68 4 -19 8 -42 9 -50 15 -120 117 -366 212 -510 78 -121
138 -185 708 -753 l539 -537 565 567 c317 318 590 601 621 643 120 161 207
344 253 531 27 110 34 147 35 191 1 23 6 27 44 33 302 46 541 148 758 324 32
25 306 295 610 599 l554 552 -568 568 c-586 585 -654 646 -824 739 -116 64
-293 129 -403 149 -14 2 -34 6 -46 9 -12 3 -39 7 -60 10 -61 9 -62 10 -69 72
-25 214 -135 485 -277 679 -45 60 -1184 1215 -1198 1213 -3 0 -260 -257 -572
-572z m1027 -304 c396 -397 513 -524 564 -613 39 -67 84 -166 106 -231 25 -71
59 -229 51 -236 -2 -2 -23 -6 -47 -9 -98 -11 -283 -64 -389 -111 -162 -71
-312 -174 -445 -308 -118 -118 -173 -188 -246 -315 l-46 -80 -48 82 c-222 383
-603 651 -1031 724 l-100 18 13 70 c32 168 103 338 201 476 41 59 947 980 963
980 4 0 208 -201 454 -447z m-1931 -1400 c3 -10 8 -38 11 -63 15 -109 83 -326
133 -420 27 -53 103 -180 117 -199 62 -77 169 -201 192 -221 104 -93 236 -188
326 -235 20 -11 37 -22 37 -26 0 -4 -15 -13 -32 -20 -76 -31 -246 -157 -343
-253 -118 -119 -131 -134 -202 -240 -121 -181 -212 -423 -236 -631 -3 -27 -7
-30 -33 -27 -66 7 -200 44 -278 76 -207 86 -263 133 -775 644 l-454 454 447
446 c246 246 475 468 509 494 138 103 288 174 452 213 123 29 122 29 129 8z
m412 -7 c61 -11 161 -48 259 -96 308 -151 534 -432 619 -769 14 -57 26 -109
26 -116 0 -27 -208 29 -338 90 -332 157 -563 439 -653 798 -26 105 -23 119 23
107 18 -5 47 -12 64 -14z m2232 -38 c-60 -342 -296 -660 -612 -828 -86 -45
-249 -103 -335 -118 l-53 -10 6 42 c3 22 8 50 10 61 3 11 10 39 16 63 5 23 22
72 37 110 144 362 468 639 843 721 47 10 88 17 91 15 4 -2 2 -27 -3 -56z m452
35 c82 -19 208 -67 280 -106 138 -75 204 -134 654 -583 251 -251 456 -459 456
-462 0 -4 -208 -215 -462 -469 -491 -489 -529 -522 -708 -606 -79 -38 -217
-81 -291 -92 -24 -4 -48 -7 -53 -8 -9 -2 -18 30 -30 103 -24 151 -92 334 -179
485 -129 224 -367 453 -586 565 l-44 22 59 32 c161 87 329 227 446 371 147
180 266 443 305 674 l18 101 35 -6 c19 -3 64 -13 100 -21z m-1786 -1350 c-50
-293 -215 -564 -454 -748 -138 -107 -353 -200 -508 -222 l-42 -6 5 44 c3 24
12 69 21 99 120 429 450 747 884 850 105 25 102 26 94 -17z m407 23 c110 -16
307 -99 422 -177 82 -57 103 -74 190 -163 167 -169 271 -372 316 -612 l9 -46
-52 7 c-66 9 -238 65 -315 104 -164 83 -360 255 -453 396 -100 154 -166 318
-185 464 -5 39 -4 43 13 38 10 -3 35 -8 55 -11z m-138 -651 c76 -114 217 -267
307 -334 19 -14 37 -29 40 -32 13 -16 154 -101 235 -141 125 -63 289 -116 405
-133 25 -3 54 -8 65 -9 17 -3 20 -10 17 -47 -6 -101 -80 -306 -155 -428 -69
-114 -138 -188 -580 -630 l-435 -434 -449 449 c-246 247 -469 476 -494 509
-118 157 -205 357 -225 525 -7 56 -7 56 71 64 120 13 304 74 445 147 250 130
465 336 606 580 l48 84 29 -55 c17 -30 48 -82 70 -115z"/>
<path d="M3420 5848 c-49 -33 -72 -81 -67 -141 5 -59 30 -95 85 -124 89 -45
208 18 213 112 4 68 -2 87 -40 127 -35 38 -43 42 -97 46 -50 3 -65 0 -94 -20z"/>
<path d="M1186 3595 c-89 -31 -128 -120 -92 -207 17 -40 30 -52 81 -77 29 -14
47 -16 82 -10 57 11 88 34 114 86 58 119 -59 251 -185 208z"/>
<path d="M5710 3587 c-77 -39 -108 -108 -83 -182 16 -45 37 -71 75 -91 35 -18
101 -18 136 0 50 26 89 85 86 131 -1 11 -2 30 -3 42 -1 27 -56 92 -88 104 -51
19 -80 18 -123 -4z"/>
<path d="M3468 1339 c-100 -27 -150 -148 -95 -230 83 -126 277 -74 281 75 2
98 -96 180 -186 155z"/>
</g>
</svg>
