<?xml version="1.0" standalone="no"?>
<!DOCTYPE svg PUBLIC "-//W3C//DTD SVG 20010904//EN"
 "http://www.w3.org/TR/2001/REC-SVG-20010904/DTD/svg10.dtd">
<svg version="1.0" xmlns="http://www.w3.org/2000/svg"
 width="700.000000pt" height="700.000000pt" viewBox="0 0 700.000000 700.000000"
 preserveAspectRatio="xMidYMid meet">
<metadata>
Created by potrace 1.14, written by Peter Selinger 2001-2017
</metadata>
<g transform="translate(0.000000,700.000000) scale(0.100000,-0.100000)"
fill="#000000" stroke="none">
<path d="M1599 6996 c-2 -2 -29 -7 -59 -10 -146 -15 -340 -65 -465 -121 -173
-77 -295 -150 -435 -260 -43 -34 -215 -208 -257 -260 -201 -250 -332 -566
-371 -890 -9 -80 -9 -3820 0 -3910 4 -38 10 -81 13 -95 3 -14 10 -50 16 -80
19 -96 87 -286 143 -399 90 -182 209 -344 352 -481 78 -75 233 -200 248 -200
3 0 26 -14 51 -31 112 -75 305 -158 477 -203 203 -53 130 -51 2183 -51 1051 0
1939 4 1975 8 376 48 731 220 996 482 156 154 241 266 331 435 78 146 155 374
178 525 4 28 10 61 13 75 9 40 12 3850 3 3905 -5 28 -11 73 -15 100 -25 213
-165 554 -299 730 -73 97 -104 134 -177 208 -82 85 -212 196 -268 227 -15 9
-49 30 -76 48 -152 98 -427 200 -611 227 -27 4 -61 10 -75 13 -28 7 -3864 14
-3871 8z"/>
</g>
</svg>
